HIERARCHY
ROOT Hips
{
	OFFSET 0.00000 0.00000 0.00000
	CHANNELS 6 Xposition Yposition Zposition Zrotation Yrotation Xrotation 
	JOINT LHipJoint
	{
		OFFSET 0 0 0
		CHANNELS 3 Zrotation Yrotation Xrotation
		JOINT LeftHip
		{
			OFFSET 1.53794 -1.55850 0.93568
			CHANNELS 3 Zrotation Yrotation Xrotation
			JOINT LeftKnee
			{
				OFFSET 2.28545 -6.27922 0.00000
				CHANNELS 3 Zrotation Yrotation Xrotation
				JOINT LeftAnkle
				{
					OFFSET 2.37329 -6.52057 0.00000
					CHANNELS 3 Zrotation Yrotation Xrotation
					JOINT LeftToe
					{
						OFFSET 0.14846 -0.40788 2.09160
						CHANNELS 3 Zrotation Yrotation Xrotation
						End Site
						{
							OFFSET 0.00000 -0.00000 1.07536
						}
					}
				}
			}
		}
	}
	JOINT RHipJoint
	{
		OFFSET 0 0 0
		CHANNELS 3 Zrotation Yrotation Xrotation
		JOINT RightHip
		{
			OFFSET -1.78290 -1.55850 0.93568
			CHANNELS 3 Zrotation Yrotation Xrotation
			JOINT RightKnee
			{
				OFFSET -2.24144 -6.15831 0.00000
				CHANNELS 3 Zrotation Yrotation Xrotation
				JOINT RightAnkle
				{
					OFFSET -2.35091 -6.45907 0.00000
					CHANNELS 3 Zrotation Yrotation Xrotation
					JOINT RightToe
					{
						OFFSET -0.14428 -0.39641 2.07944
						CHANNELS 3 Zrotation Yrotation Xrotation
						End Site
						{
							OFFSET -0.00000 -0.00000 1.06864
						}
					}
				}
			}
		}
	}
	JOINT lowerback
	{
		OFFSET 0 0 0
		CHANNELS 3 Zrotation Yrotation Xrotation
		JOINT Chest
		{
			OFFSET -0.08841 2.11430 -0.15818
			CHANNELS 3 Zrotation Yrotation Xrotation
			JOINT Chest2
			{
				OFFSET -0.00033 2.12605 -0.08097
				CHANNELS 3 Zrotation Yrotation Xrotation
				JOINT lowerneck
				{
					OFFSET 0 0 0
					CHANNELS 3 Zrotation Yrotation Xrotation
					JOINT Neck
					{
						OFFSET 0.04431 1.59447 0.43193
						CHANNELS 3 Zrotation Yrotation Xrotation
						JOINT Head
						{
							OFFSET 0.00455 1.62017 -0.58852
							CHANNELS 3 Zrotation Yrotation Xrotation
							End Site
							{
								OFFSET -0.00920 1.72955 -0.25850
							}
						}
					}
				}
				JOINT LeftCollar
				{
					OFFSET 0 0 0
					CHANNELS 3 Zrotation Yrotation Xrotation
					JOINT LeftShoulder
					{
						OFFSET 2.86490 1.49927 -0.33774
CHANNELS 3 Zrotation Xrotation Yrotation
						JOINT LeftElbow
						{
OFFSET 0 -4.874080 0.000000
CHANNELS 3 Zrotation Xrotation Yrotation
							JOINT LeftWrist
							{
OFFSET 0 -2.767290 0.000000
CHANNELS 3 Zrotation Xrotation Yrotation
								JOINT lhand
								{
									OFFSET 0 0 0
CHANNELS 3 Zrotation Xrotation Yrotation
									JOINT LFingers
									{
OFFSET 0 -0.989220 0.000000
CHANNELS 3 Zrotation Xrotation Yrotation
										End Site
										{
OFFSET 0 -0.797530 0.000000
										}
									}
								}
								JOINT LThumb
								{
OFFSET 0 0.000000 0.000000
CHANNELS 3 Zrotation Xrotation Yrotation
									End Site
									{
OFFSET 0 -0.809720 0.809720
									}
								}
							}
						}
					}
				}
				JOINT RightCollar
				{
					OFFSET 0 0 0
					CHANNELS 3 Zrotation Yrotation Xrotation
					JOINT RightShoulder
					{
						OFFSET -2.94414 1.45463 -0.25291
CHANNELS 3 Zrotation Xrotation Yrotation
						JOINT RightElbow
						{
OFFSET 0 -4.714040 0.000000
CHANNELS 3 Zrotation Xrotation Yrotation
							JOINT RightWrist
							{
OFFSET 0 -2.834680 0.000000
CHANNELS 3 Zrotation Xrotation Yrotation
								JOINT rhand
								{
									OFFSET 0 0 0
CHANNELS 3 Zrotation Xrotation Yrotation
									JOINT RFingers
									{
OFFSET 0 -0.868200 0.000000
CHANNELS 3 Zrotation Xrotation Yrotation
										End Site
										{
OFFSET 0 -0.699960 0.000000
										}
									}
								}
								JOINT RThumb
								{
OFFSET 0 0.000000 0.000000
CHANNELS 3 Zrotation Xrotation Yrotation
									End Site
									{
OFFSET 0 -0.710650 0.710650
									}
								}
							}
						}
					}
				}
			}
		}
	}
}
MOTION
Frames: 11
Frame Time: 0.008333333333333333
1.582802 16.617027 -2.394735 -180.051684 -0.914650 -167.634808 0.000000 0.000000 0.000000 -18.313937 -16.593726 -30.157507 2.027157 8.920920 25.549365 0.178181 9.711973 9.512864 0.130302 -2.325576 -6.406371 0.000000 0.000000 0.000000 24.833700 -0.524590 5.047616 -3.786996 -11.863899 35.262414 -1.270623 -22.229978 23.892026 -0.512348 4.587774 -12.736440 -2.236173 4.998311 -5.057505 -2.688191 6.745384 -0.940371 -1.071033 3.316826 1.919001 -2.323116 -4.064748 -35.628341 3.314942 -8.208230 37.991348 -0.358552 -3.275872 21.818602 0.000000 0.000000 0.000000 24.953581 29.271434 -60.996120 126.451107 -54.330204 90.966505 12.982019 20.903832 -2.624257 0.000000 0.000000 0.000000 -7.125000 0.000000 0.000000 -10.978670 32.536408 -3.405011 0.000000 0.000000 0.000000 -10.430158 17.957907 55.723318 -111.760767 -58.132065 -78.727118 -12.141760 7.835968 -1.701830 0.000000 0.000000 0.000000 7.125000 0.000000 0.000000 11.130444 28.172258 4.637711
1.580007 16.587281 -2.491204 -180.065053 -0.997750 -167.786424 0.000000 0.000000 0.000000 -18.571411 -16.367578 -29.907720 2.086072 9.040359 25.923696 0.143543 9.668919 8.991991 0.122706 -2.255328 -6.211914 0.000000 0.000000 0.000000 24.758499 -0.614769 4.779447 -3.997587 -12.143097 36.260041 -1.178468 -22.193335 23.335878 -0.523043 4.634322 -12.868519 -2.234320 4.922534 -4.958514 -2.656774 6.644752 -0.884312 -1.052499 3.267877 1.917604 -2.278148 -4.014645 -35.618223 3.298626 -8.146490 37.975245 -0.356455 -3.250015 21.797607 0.000000 0.000000 0.000000 24.778144 29.062301 -60.977161 126.351721 -54.364811 90.885714 13.039658 20.850295 -2.612772 0.000000 0.000000 0.000000 -7.125000 0.000000 0.000000 -10.931210 32.526625 -3.392432 0.000000 0.000000 0.000000 -10.368873 18.183721 55.495955 -111.417702 -58.192195 -78.435553 -12.209881 7.898103 -1.626691 0.000000 0.000000 0.000000 7.125000 0.000000 0.000000 11.085931 28.247975 4.598334
1.577212 16.557535 -2.587673 -180.078422 -1.080850 -167.938040 0.000000 0.000000 0.000000 -18.828884 -16.141430 -29.657933 2.144986 9.159798 26.298026 0.108906 9.625865 8.471119 0.115110 -2.185081 -6.017456 0.000000 0.000000 0.000000 24.683299 -0.704949 4.511278 -4.208178 -12.422296 37.257668 -1.086314 -22.156692 22.779729 -0.533738 4.680871 -13.000598 -2.232466 4.846756 -4.859523 -2.625357 6.544121 -0.828254 -1.033964 3.218929 1.916206 -2.233179 -3.964542 -35.608105 3.282310 -8.084749 37.959141 -0.354359 -3.224158 21.776612 0.000000 0.000000 0.000000 24.602707 28.853168 -60.958201 126.252335 -54.399418 90.804923 13.097296 20.796759 -2.601287 0.000000 0.000000 0.000000 -7.125000 0.000000 0.000000 -10.883751 32.516841 -3.379853 0.000000 0.000000 0.000000 -10.307589 18.409534 55.268592 -111.074636 -58.252325 -78.143988 -12.278002 7.960238 -1.551551 0.000000 0.000000 0.000000 7.125000 0.000000 0.000000 11.041419 28.323692 4.558956
1.574366 16.527415 -2.684015 -180.097311 -1.164160 -168.089402 0.000000 0.000000 0.000000 -19.086783 -15.926974 -29.399062 2.206096 9.282010 26.682253 0.072187 9.615564 7.917702 0.107990 -2.118259 -5.832534 0.000000 0.000000 0.000000 24.598228 -0.796359 4.236708 -4.422842 -12.699521 38.259096 -0.995079 -22.118787 22.222027 -0.544528 4.727508 -13.132988 -2.235828 4.769342 -4.759561 -2.595767 6.441389 -0.771625 -1.014485 3.168813 1.914554 -2.187881 -3.913766 -35.598197 3.268448 -8.023612 37.943120 -0.351254 -3.198117 21.756041 0.000000 0.000000 0.000000 24.423705 28.637672 -60.939203 126.145945 -54.436316 90.718409 13.154027 20.736694 -2.589669 0.000000 0.000000 0.000000 -7.125000 0.000000 0.000000 -10.836995 32.506886 -3.367534 0.000000 0.000000 0.000000 -10.242308 18.634821 55.034720 -110.719981 -58.313527 -77.842413 -12.346675 8.024822 -1.473969 0.000000 0.000000 0.000000 7.125000 0.000000 0.000000 10.996710 28.401915 4.518963
1.571327 16.495876 -2.779876 -180.137114 -1.248263 -168.239803 0.000000 0.000000 0.000000 -19.346293 -15.756824 -29.105766 2.275523 9.414727 27.103983 0.027583 9.729383 7.240960 0.102673 -2.064418 -5.683744 0.000000 0.000000 0.000000 24.475750 -0.892434 3.937881 -4.652940 -12.969270 39.274923 -0.907330 -22.076097 21.658435 -0.555679 4.774481 -13.266556 -2.258950 4.685725 -4.655921 -2.573101 6.330700 -0.712832 -0.991424 3.114273 1.911941 -2.141333 -3.860443 -35.589082 3.263891 -7.964758 37.927412 -0.344326 -3.171379 21.737082 0.000000 0.000000 0.000000 24.231192 28.398064 -60.920061 126.013016 -54.481892 90.610212 13.207321 20.651892 -2.577546 0.000000 0.000000 0.000000 -7.125000 0.000000 0.000000 -10.792908 32.496282 -3.356201 0.000000 0.000000 0.000000 -10.161881 18.858113 54.776182 -110.321404 -58.378791 -77.502903 -12.417439 8.098685 -1.387132 0.000000 0.000000 0.000000 7.125000 0.000000 0.000000 10.951255 28.489633 4.476638
1.568289 16.464338 -2.875738 -180.176917 -1.332366 -168.390204 0.000000 0.000000 0.000000 -19.605802 -15.586674 -28.812469 2.344951 9.547445 27.525713 -0.017020 9.843201 6.564218 0.097355 -2.010578 -5.534953 0.000000 0.000000 0.000000 24.353272 -0.988508 3.639055 -4.883038 -13.239019 40.290751 -0.819581 -22.033408 21.094842 -0.566830 4.821455 -13.400124 -2.282072 4.602108 -4.552281 -2.550435 6.220012 -0.654039 -0.968362 3.059734 1.909328 -2.094785 -3.807119 -35.579966 3.259333 -7.905904 37.911703 -0.337398 -3.144642 21.718122 0.000000 0.000000 0.000000 24.038679 28.158456 -60.900920 125.880086 -54.527468 90.502015 13.260614 20.567091 -2.565422 0.000000 0.000000 0.000000 -7.125000 0.000000 0.000000 -10.748821 32.485678 -3.344867 0.000000 0.000000 0.000000 -10.081455 19.081405 54.517645 -109.922827 -58.444056 -77.163392 -12.488204 8.172549 -1.300294 0.000000 0.000000 0.000000 7.125000 0.000000 0.000000 10.905801 28.577352 4.434313
1.565250 16.432799 -2.971599 -180.216720 -1.416468 -168.540604 0.000000 0.000000 0.000000 -19.865312 -15.416523 -28.519173 2.414378 9.680162 27.947442 -0.061624 9.957019 5.887475 0.092038 -1.956737 -5.386163 0.000000 0.000000 0.000000 24.230794 -1.084582 3.340229 -5.113136 -13.508768 41.306578 -0.731832 -21.990718 20.531250 -0.577981 4.868429 -13.533692 -2.305194 4.518491 -4.448642 -2.527768 6.109323 -0.595246 -0.945301 3.005195 1.906715 -2.048236 -3.753795 -35.570851 3.254776 -7.847051 37.895995 -0.330471 -3.117904 21.699163 0.000000 0.000000 0.000000 23.846166 27.918848 -60.881778 125.747156 -54.573044 90.393817 13.313908 20.482289 -2.553299 0.000000 0.000000 0.000000 -7.125000 0.000000 0.000000 -10.704734 32.475074 -3.333534 0.000000 0.000000 0.000000 -10.001029 19.304697 54.259108 -109.524250 -58.509321 -76.823882 -12.558968 8.246412 -1.213457 0.000000 0.000000 0.000000 7.125000 0.000000 0.000000 10.860346 28.665070 4.391988
1.562101 16.400508 -3.066596 -180.280778 -1.494270 -168.683756 0.000000 0.000000 0.000000 -20.124710 -15.299289 -28.198721 2.490329 9.817395 28.389886 -0.109489 10.200507 5.144212 0.088059 -1.913101 -5.265643 0.000000 0.000000 0.000000 24.066134 -1.171790 3.008169 -5.360185 -13.767672 42.335760 -0.650077 -21.941338 19.971226 -0.587097 4.905700 -13.639854 -2.353185 4.431167 -4.339315 -2.514079 5.993616 -0.537373 -0.917834 2.947533 1.898805 -1.999123 -3.699300 -35.560705 3.258052 -7.790985 37.874766 -0.320644 -3.090525 21.677053 0.000000 0.000000 0.000000 23.636117 27.650858 -60.860991 125.578623 -54.629744 90.256318 13.363410 20.393278 -2.545079 0.000000 0.000000 0.000000 -7.125000 0.000000 0.000000 -10.664159 32.468234 -3.322284 0.000000 0.000000 0.000000 -9.897964 19.526483 53.969067 -109.078472 -58.577011 -76.443332 -12.623125 8.328891 -1.118730 0.000000 0.000000 0.000000 7.125000 0.000000 0.000000 10.820691 28.760846 4.350556
1.558941 16.368149 -3.161516 -180.347015 -1.571507 -168.826257 0.000000 0.000000 0.000000 -20.384098 -15.186808 -27.875831 2.566866 9.955035 28.834191 -0.157648 10.455641 4.394974 0.084201 -1.870381 -5.147662 0.000000 0.000000 0.000000 23.897686 -1.258202 2.673125 -5.608756 -14.025601 43.366141 -0.568861 -21.891356 19.411523 -0.596030 4.942100 -13.743554 -2.403410 4.343509 -4.229476 -2.501196 5.877458 -0.479582 -0.889972 2.889591 1.890419 -1.949780 -3.644700 -35.550465 3.262033 -7.735169 37.853041 -0.310556 -3.063088 21.654660 0.000000 0.000000 0.000000 23.424493 27.380319 -60.840056 125.406893 -54.687443 90.116187 13.412571 20.303888 -2.537210 0.000000 0.000000 0.000000 -7.125000 0.000000 0.000000 -10.623901 32.461732 -3.311042 0.000000 0.000000 0.000000 -9.792866 19.748134 53.676195 -108.628455 -58.644920 -76.059096 -12.686688 8.412143 -1.023293 0.000000 0.000000 0.000000 7.125000 0.000000 0.000000 10.781556 28.857346 4.309203
1.555781 16.335790 -3.256436 -180.413252 -1.648743 -168.968758 0.000000 0.000000 0.000000 -20.643486 -15.074326 -27.552940 2.643404 10.092674 29.278496 -0.205807 10.710775 3.645735 0.080342 -1.827661 -5.029681 0.000000 0.000000 0.000000 23.729237 -1.344614 2.338081 -5.857327 -14.283531 44.396522 -0.487645 -21.841374 18.851820 -0.604962 4.978500 -13.847255 -2.453635 4.255851 -4.119638 -2.488313 5.761300 -0.421792 -0.862110 2.831649 1.882033 -1.900436 -3.590100 -35.540226 3.266013 -7.679354 37.831317 -0.300469 -3.035651 21.632267 0.000000 0.000000 0.000000 23.212868 27.109780 -60.819122 125.235163 -54.745142 89.976057 13.461732 20.214498 -2.529340 0.000000 0.000000 0.000000 -7.125000 0.000000 0.000000 -10.583642 32.455229 -3.299800 0.000000 0.000000 0.000000 -9.687767 19.969785 53.383324 -108.178438 -58.712828 -75.674861 -12.750251 8.495395 -0.927857 0.000000 0.000000 0.000000 7.125000 0.000000 0.000000 10.742422 28.953845 4.267850
1.552602 16.303412 -3.350727 -180.496047 -1.718861 -169.104788 0.000000 0.000000 0.000000 -20.904511 -14.993494 -27.216062 2.721425 10.227763 29.719318 -0.253927 11.024774 2.897696 0.078272 -1.804411 -4.965464 0.000000 0.000000 0.000000 23.533554 -1.418903 1.977306 -6.117032 -14.532991 45.435202 -0.413603 -21.773256 18.307780 -0.613362 5.012293 -13.943647 -2.522967 4.166424 -4.007593 -2.480836 5.642725 -0.363297 -0.828938 2.772013 1.872372 -1.853414 -3.536356 -35.533850 3.277320 -7.625689 37.804968 -0.286765 -3.007929 21.608789 0.000000 0.000000 0.000000 22.983716 26.815909 -60.792040 125.033229 -54.811767 89.811013 13.507886 20.131123 -2.524421 0.000000 0.000000 0.000000 -7.125000 0.000000 0.000000 -10.546219 32.451658 -3.288711 0.000000 0.000000 0.000000 -9.567482 20.188087 53.068091 -107.701320 -58.780546 -75.266854 -12.813871 8.583957 -0.833126 0.000000 0.000000 0.000000 7.125000 0.000000 0.000000 10.703135 29.049793 4.226936
